M48
INCH
T01C0.02
T02C0.03
T03C0.0335
T04C0.035
T05C0.0417
%
T01
X+003375Y-013275
X+003375Y-014475
T02
X-010775Y+001875
X-011975Y+001875
X-004875Y-010590
X-006160Y-013050
X-006160Y-013750
X-006160Y-014450
T03
X-005875Y-010590
X-006875Y-010590
T04
X-012625Y-001875
X-012625Y-003875
X-010875Y-003975
X-011875Y-005500
X-011875Y-006500
X-011875Y-007500
X-011875Y-008500
X-011850Y-010657
X-011850Y-013750
X-008650Y-013750
X-008650Y-010657
X-008875Y-008500
X-008875Y-007500
X-008875Y-006500
X-008875Y-005500
X-008750Y-003975
X-007125Y-005750
X-005250Y-005875
X-005250Y-007875
X-007125Y-007750
X-003375Y-008350
X-001750Y-007625
X+000250Y-007625
X+000250Y-010000
X-001750Y-010000
X-001750Y-012125
X+000250Y-012125
X+000250Y-014375
X-001750Y-014375
X-001750Y-005125
X-003375Y-005150
X+000250Y-005125
X-008750Y-000775
X-010875Y-000775
T05
X-003812Y+001875
X-001063Y+001875
X+003063Y+001875
X+003375Y-000937
X+003375Y-005063
X+003375Y-007187
X+003375Y-011313
X-007938Y+001875
T00
M30
